<?xml version="1.0" encoding="UTF-8"?>
<svg version="1.1" xmlns="http://www.w3.org/2000/svg" width="168" height="235">
<path d="M0 0 C0.84111328 0.16125366 1.68222656 0.32250732 2.54882812 0.48864746 C5.26215199 1.01259362 7.97302267 1.54794239 10.68359375 2.0859375 C11.60671356 2.26767517 12.52983337 2.44941284 13.48092651 2.63665771 C79.79268127 15.73529375 79.79268127 15.73529375 93.81640625 35.8984375 C103.3942189 52.53646634 96.71459915 72.24212413 92.12109375 89.4609375 C90.89600982 94.1442282 89.68918175 98.83189614 88.49609375 103.5234375 C88.20065674 104.68504395 87.90521973 105.84665039 87.60083008 107.04345703 C84.77414311 118.40887949 82.75973233 129.86882692 81.12109375 141.4609375 C81.02304443 142.15050537 80.92499512 142.84007324 80.82397461 143.55053711 C77.51354175 168.28141786 78.98497688 194.22886702 83.53515625 218.7109375 C84.11900343 222.44755946 84.51042622 225.69437217 84.12109375 229.4609375 C82.0268445 232.21171357 80.80465956 233.32377322 77.38354492 234.01025391 C73.6903861 234.07018687 70.00198124 234.11995682 66.30859375 234.0859375 C65.25970978 234.08595261 65.25970978 234.08595261 64.18963623 234.08596802 C48.02319458 234.04410715 32.10062558 231.8467745 16.12963867 229.50830078 C15.15064102 229.36861374 14.17164337 229.2289267 13.16297913 229.08500671 C11.336984 228.82250028 9.51248848 228.54920529 7.69017029 228.26228333 C2.08707043 227.45579522 -2.84036763 227.61309695 -8.44046021 228.4924469 C-11.55758747 228.45216764 -12.68040729 227.620115 -14.87890625 225.4609375 C-15.9221655 222.33115976 -16.11043135 219.8830608 -16.2734375 216.59375 C-16.33998535 215.34086182 -16.4065332 214.08797363 -16.47509766 212.79711914 C-16.52745575 211.77377975 -16.52745575 211.77377975 -16.58087158 210.72976685 C-17.56484392 191.6455391 -19.04353085 172.6016314 -20.55786133 153.55322266 C-20.73002491 151.34668315 -20.90214589 149.14014033 -21.07421875 146.93359375 C-21.1553743 145.9388353 -21.23652985 144.94407684 -21.32014465 143.91917419 C-21.82340969 137.42019484 -21.97096167 130.97845108 -21.87890625 124.4609375 C-23.01328125 124.5434375 -24.14765625 124.6259375 -25.31640625 124.7109375 C-38.74405452 124.7109375 -55.59157674 119.98445784 -65.57421875 110.921875 C-70.26860292 105.79080393 -70.88716218 100.77041266 -70.6015625 93.9453125 C-68.65586816 84.5639106 -60.2940568 78.72465494 -52.81640625 73.5234375 C-45.96196328 69.02592093 -38.71696984 65.95808109 -30.67358398 64.39355469 C-29.77510239 64.21765808 -28.87662079 64.04176147 -27.95091248 63.86053467 C-27.26715042 63.7286676 -26.58338837 63.59680054 -25.87890625 63.4609375 C-25.8946167 62.1605957 -25.91032715 60.86025391 -25.92651367 59.52050781 C-25.9812678 54.64508382 -26.01542018 49.7696864 -26.04370117 44.89404297 C-26.05868498 42.79341036 -26.07907906 40.69280849 -26.10522461 38.59228516 C-26.47265389 8.29017613 -26.47265389 8.29017613 -18.12890625 -0.3515625 C-12.69913586 -3.21727465 -5.76939751 -1.13748282 0 0 Z " fill="#FEFEFD" transform="translate(69.87890625,1.5390625)"/>
<path d="M0 0 C1.69687487 1.29467031 3.37097457 2.62093085 5 4 C5.6084375 4.50402344 6.216875 5.00804688 6.84375 5.52734375 C10.38977371 8.54648186 13.7468733 11.66126471 17 15 C17.928125 15.928125 18.85625 16.85625 19.8125 17.8125 C20.534375 18.534375 21.25625 19.25625 22 20 C19.57879835 26.53724446 13.0901008 29.85926515 7.12109375 32.6796875 C-20.05488757 44.17590989 -57.44362227 51.17215349 -86 41 C-86.99644531 40.66355469 -87.99289063 40.32710937 -89.01953125 39.98046875 C-96.183339 37.34779562 -102.38481022 33.88761096 -106.84375 27.53125 C-109.30414809 22.14497311 -109.18575901 16.71728128 -108 11 C-100.87503146 -2.0538992 -85.80616845 -10.38914858 -72.02832031 -14.60302734 C-45.2651583 -22.26308848 -22.68633482 -14.82153354 0 0 Z " fill="#FBC045" transform="translate(108,81)"/>
<path d="M0 0 C1.26166992 0.24188049 1.26166992 0.24188049 2.54882812 0.48864746 C5.26215199 1.01259362 7.97302267 1.54794239 10.68359375 2.0859375 C11.60671356 2.26767517 12.52983337 2.44941284 13.48092651 2.63665771 C79.79268127 15.73529375 79.79268127 15.73529375 93.81640625 35.8984375 C103.3942189 52.53646634 96.71459915 72.24212413 92.12109375 89.4609375 C90.89600982 94.1442282 89.68918175 98.83189614 88.49609375 103.5234375 C88.20065674 104.68504395 87.90521973 105.84665039 87.60083008 107.04345703 C84.77414311 118.40887949 82.75973233 129.86882692 81.12109375 141.4609375 C81.02304443 142.15050537 80.92499512 142.84007324 80.82397461 143.55053711 C77.51354175 168.28141786 78.98497688 194.22886702 83.53515625 218.7109375 C85.0071697 228.13182358 85.0071697 228.13182358 82.49609375 231.8984375 C79.42248216 233.92055039 77.73184219 234.07553298 74.12109375 233.4609375 C71.27354326 230.49096734 70.58437474 227.88658379 69.98828125 223.875 C69.73884766 222.22951172 69.73884766 222.22951172 69.484375 220.55078125 C69.32324219 219.40738281 69.16210938 218.26398438 68.99609375 217.0859375 C68.82722656 215.98121094 68.65835938 214.87648437 68.484375 213.73828125 C66.31885216 199.0570595 65.93458354 184.53888859 65.93579102 169.72802734 C65.93358772 166.70265974 65.9153161 163.67764805 65.89648438 160.65234375 C65.89355224 158.69791789 65.89156624 156.74349033 65.890625 154.7890625 C65.88343948 153.90027405 65.87625397 153.0114856 65.86885071 152.09576416 C65.89079935 145.99626869 66.78785668 140.40094098 68.12109375 134.4609375 C68.45113233 132.42203251 68.76610588 130.38056702 69.05859375 128.3359375 C70.6516757 117.87061452 72.34971095 107.5975051 75.43359375 97.4609375 C84.51613368 71.71986712 84.51613368 71.71986712 82.93359375 45.3359375 C79.15037865 39.33497562 74.32950973 36.09298361 68.18359375 32.8984375 C67.43215088 32.50567627 66.68070801 32.11291504 65.90649414 31.70825195 C59.18858701 28.3063214 52.45039841 26.17785749 45.12109375 24.4609375 C43.78575159 24.12519433 42.45113673 23.7865479 41.1171875 23.4453125 C38.38217771 22.74766892 35.64428638 22.06440201 32.90234375 21.39453125 C30.66846024 20.84298357 28.4376697 20.27813994 26.21484375 19.68359375 C19.45174536 17.8859311 12.62330244 16.54894918 5.74609375 15.2734375 C4.79395996 15.09425781 3.84182617 14.91507813 2.86083984 14.73046875 C-1.77753218 13.89115209 -6.14215521 13.23122884 -10.87890625 13.4609375 C-11.9389387 18.73469325 -12.0944636 23.87750267 -12.1953125 29.234375 C-12.2160936 30.1581192 -12.23687469 31.0818634 -12.25828552 32.03359985 C-12.32336744 34.96764094 -12.38247268 37.90176712 -12.44140625 40.8359375 C-12.48463085 42.83203985 -12.52824637 44.82813377 -12.57226562 46.82421875 C-12.67900615 51.70303906 -12.78038873 56.58194449 -12.87890625 61.4609375 C-14.29429342 61.79966263 -15.71128588 62.13168374 -17.12890625 62.4609375 C-17.9178125 62.6465625 -18.70671875 62.8321875 -19.51953125 63.0234375 C-21.87890625 63.4609375 -21.87890625 63.4609375 -25.87890625 63.4609375 C-25.95367967 57.27199879 -26.00780044 51.08332948 -26.04370117 44.89404297 C-26.05868498 42.79341036 -26.07907906 40.69280849 -26.10522461 38.59228516 C-26.47265389 8.29017613 -26.47265389 8.29017613 -18.12890625 -0.3515625 C-12.69913586 -3.21727465 -5.76939751 -1.13748282 0 0 Z " fill="#B5B5B5" transform="translate(69.87890625,1.5390625)"/>
<path d="M0 0 C1.69687487 1.29467031 3.37097457 2.62093085 5 4 C5.6084375 4.50402344 6.216875 5.00804688 6.84375 5.52734375 C10.38977371 8.54648186 13.7468733 11.66126471 17 15 C17.928125 15.928125 18.85625 16.85625 19.8125 17.8125 C20.534375 18.534375 21.25625 19.25625 22 20 C19.57879835 26.53724446 13.0901008 29.85926515 7.12109375 32.6796875 C-20.05488757 44.17590989 -57.44362227 51.17215349 -86 41 C-86.99644531 40.66355469 -87.99289063 40.32710937 -89.01953125 39.98046875 C-96.183339 37.34779562 -102.38481022 33.88761096 -106.84375 27.53125 C-109.30414809 22.14497311 -109.18575901 16.71728128 -108 11 C-100.87503146 -2.0538992 -85.80616845 -10.38914858 -72.02832031 -14.60302734 C-45.2651583 -22.26308848 -22.68633482 -14.82153354 0 0 Z M-53 -13 C-53 -12.34 -53 -11.68 -53 -11 C-54.3303125 -11.12375 -54.3303125 -11.12375 -55.6875 -11.25 C-70.5814403 -11.21985032 -85.15652436 -1.62966526 -95.9921875 7.71875 C-99.83403894 11.61574763 -100.92179316 15.18240691 -101.1875 20.62109375 C-100.92822306 23.91066996 -99.79849315 26.26629041 -98 29 C-97.34 29 -96.68 29 -96 29 C-96 29.66 -96 30.32 -96 31 C-65.25476126 43.26723453 -29.67573012 41.89185189 1 29 C5.20659737 26.99133025 9.16938608 24.65880164 13 22 C12.54172489 17.40920896 11.03476635 15.63753749 7.5625 12.6875 C6.75941406 11.99011719 5.95632812 11.29273437 5.12890625 10.57421875 C3.17326838 8.80181434 3.17326838 8.80181434 1 9 C1 8.34 1 7.68 1 7 C-14.53172118 -5.53127504 -33.09549871 -13.31875536 -53 -13 Z " fill="#FB9347" transform="translate(108,81)"/>
<path d="M0 0 C4.29 0 8.58 0 13 0 C13.16604736 2.03800781 13.16604736 2.03800781 13.33544922 4.1171875 C13.7564528 9.28370938 14.17774852 14.45020742 14.59912109 19.61669922 C14.77953613 21.82925809 14.9598777 24.04182295 15.14013672 26.25439453 C15.31519926 28.40306715 15.49040108 30.55172842 15.66574097 32.70037842 C15.84261767 34.86964879 16.01898375 37.03896085 16.19485474 39.20831299 C16.63522325 44.62189644 17.08762273 50.03396244 17.56591797 55.44433594 C18.52736235 66.39218375 19.36230124 77.25287518 19.375 88.25 C19.39949219 89.44367188 19.42398438 90.63734375 19.44921875 91.8671875 C19.45501953 93.58035156 19.45501953 93.58035156 19.4609375 95.328125 C19.46915527 96.3274707 19.47737305 97.32681641 19.48583984 98.35644531 C18.86420348 101.73889683 17.70541936 102.93657561 15 105 C11.9375 105.0625 11.9375 105.0625 9 104 C6.22955414 100.31976354 5.59302688 97.48956139 5.41015625 92.9375 C5.35005371 91.6911377 5.28995117 90.44477539 5.22802734 89.16064453 C5.20133972 88.48664612 5.1746521 87.81264771 5.14715576 87.1182251 C4.99721123 83.36636848 4.80015229 79.61694748 4.60546875 75.8671875 C4.56315125 75.03677948 4.52083374 74.20637146 4.47723389 73.35079956 C3.77409121 60.09098955 2.65234944 46.85546629 1.59500122 33.62011719 C1.32779818 30.27046727 1.06602282 26.92042452 0.8046875 23.5703125 C0.72354202 22.5807254 0.64239655 21.59113831 0.55879211 20.57156372 C0.02629124 13.69645611 -0.06572445 6.89596261 0 0 Z " fill="#B6B5B5" transform="translate(48,125)"/>
<path d="M0 0 C3.71954347 3.01584606 5.06592079 6.18417116 5.75 10.875 C5.1833265 14.76076111 3.78510877 16.85292261 1.3125 19.875 C-2.4347489 22.23961618 -5.22227271 22.06954059 -9.49609375 21.4921875 C-12.87888116 20.5394595 -14.56987248 18.58821026 -16.6875 15.875 C-18.44221072 12.36557855 -17.63633623 8.5870012 -16.6875 4.875 C-12.18186785 -0.81632483 -6.9308922 -2.90130371 0 0 Z " fill="#060606" transform="translate(122.6875,42.125)"/>
<path d="M0 0 C3.71954347 3.01584606 5.06592079 6.18417116 5.75 10.875 C5.1833265 14.76076111 3.78510877 16.85292261 1.3125 19.875 C-2.4347489 22.23961618 -5.22227271 22.06954059 -9.49609375 21.4921875 C-12.87888116 20.5394595 -14.56987248 18.58821026 -16.6875 15.875 C-18.44221072 12.36557855 -17.63633623 8.5870012 -16.6875 4.875 C-12.18186785 -0.81632483 -6.9308922 -2.90130371 0 0 Z " fill="#060606" transform="translate(88.6875,38.125)"/>
</svg>
